
        <svg xmlns="http://www.w3.org/2000/svg" xmlns:xlink="http://www.w3.org/1999/xlink" version="1.1" width="3162.1621621621625" height="852.6017146829225" viewBox="0 0 3162.1621621621625 852.6017146829225">
			
			<g transform="scale(8.108108108108109) translate(10, 10)">
				<defs id="SvgjsDefs2965"/><g id="SvgjsG2966" featureKey="symbolFeature-0" transform="matrix(0.5227391448234538,0,0,0.5227391448234538,-16.88447397897924,-24.307370234290605)" fill="#000"><g xmlns="http://www.w3.org/2000/svg"><path d="M84.5,82.1c9,0,16.4-6.7,17.6-15.4h30.4l13,18.8c0.5,0.7,1.2,1,2,1h73.7c1.3,0,2.4-1.1,2.4-2.4c0-1.3-1.1-2.4-2.4-2.4   h-72.5l-13-18.8c-0.5-0.7-1.2-1-2-1H102c-1.2-8.7-8.6-15.4-17.6-15.4c-9.8,0-17.8,8-17.8,17.8S74.7,82.1,84.5,82.1z M84.5,51.4   c7.1,0,12.9,5.8,12.9,12.9c0,0,0,0,0,0c0,0,0,0,0,0c0,7.1-5.8,12.9-12.9,12.9c-7.1,0-12.9-5.8-12.9-12.9S77.3,51.4,84.5,51.4z"/><path d="M221.2,109.5h-76.7c-1.2-8.7-8.6-15.4-17.6-15.4c-9.8,0-17.8,8-17.8,17.8s8,17.8,17.8,17.8c9,0,16.4-6.7,17.6-15.4h76.7   c1.3,0,2.4-1.1,2.4-2.4C223.6,110.6,222.5,109.5,221.2,109.5z M126.9,124.9c-7.1,0-12.9-5.8-12.9-12.9S119.8,99,126.9,99   c7.1,0,12.9,5.8,12.9,12.9c0,0,0,0,0,0s0,0,0,0C139.8,119.1,134,124.9,126.9,124.9z"/><path d="M221.2,140.3h-66.9c-0.8,0-1.6,0.4-2.1,1.1l-9.4,15h-41.2l-10.2-19c-0.4-0.8-1.2-1.3-2.1-1.3H67.7   c-1.2-8.7-8.6-15.4-17.6-15.4c-9.8,0-17.8,8-17.8,17.8s8,17.8,17.8,17.8c9,0,16.4-6.7,17.6-15.4h20.1l10.2,19   c0.4,0.8,1.2,1.3,2.1,1.3h44c0.8,0,1.6-0.4,2.1-1.1l9.4-15h65.5c1.3,0,2.4-1.1,2.4-2.4C223.6,141.4,222.5,140.3,221.2,140.3z    M50.1,151.6c-7.1,0-12.9-5.8-12.9-12.9s5.8-12.9,12.9-12.9c7.1,0,12.9,5.8,12.9,12.9c0,0,0,0,0,0s0,0,0,0   C63.1,145.8,57.3,151.6,50.1,151.6z"/><path d="M221.2,168.6h-38.6c-0.9,0-1.7,0.5-2.1,1.2l-11.4,19.4h-58.2c-1.2-8.7-8.6-15.4-17.6-15.4c-9.8,0-17.8,8-17.8,17.8   c0,9.8,8,17.8,17.8,17.8c9,0,16.4-6.7,17.6-15.4h59.6c0.9,0,1.7-0.5,2.1-1.2l11.4-19.4h37.2c1.3,0,2.4-1.1,2.4-2.4   C223.6,169.7,222.5,168.6,221.2,168.6z M93.3,204.6c-7.1,0-12.9-5.8-12.9-12.9c0-7.1,5.8-12.9,12.9-12.9c7.1,0,12.9,5.8,12.9,12.9   C106.3,198.8,100.5,204.6,93.3,204.6z"/></g></g><g id="SvgjsG2967" featureKey="nameFeature-0" transform="matrix(1.476086834700077,0,0,1.476086834700077,119.66749014048277,6.23913165299923)" fill="#000"><path d="M29.56 37.72 q0.28 0.64 -0.14 1.3 t-1.14 0.66 l-26.64 0 q-0.36 0 -0.68 -0.18 t-0.48 -0.46 q-0.44 -0.64 -0.12 -1.32 l1.24 -2.92 q0.16 -0.4 0.52 -0.64 t0.76 -0.24 l18.64 0 l-6.56 -15.68 l-5.36 12.8 q-0.16 0.4 -0.5 0.62 t-0.78 0.22 l-3.36 0 q-0.76 0 -1.2 -0.64 q-0.16 -0.28 -0.2 -0.64 t0.08 -0.68 l8.12 -19.04 q0.16 -0.4 0.5 -0.64 t0.78 -0.24 l3.84 0 q0.44 0 0.78 0.24 t0.5 0.64 z M57.388 27.119999999999997 q0.6 0 1 0.4 t0.4 0.96 l0 2.72 q0 0.56 -0.4 0.96 t-1 0.4 l-1.6 0 l0 5.4 q0 0.56 -0.42 0.98 t-0.98 0.42 l-3 0 q-0.56 0 -0.98 -0.42 t-0.42 -0.98 l0 -5.4 l-11.28 0 q-0.56 0 -0.98 -0.4 t-0.42 -0.96 l0 -2.96 q0 -0.4 0.24 -0.76 l11.16 -16.84 q0.16 -0.28 0.48 -0.46 t0.68 -0.18 l4.52 0 q0.56 0 0.98 0.42 t0.42 0.98 l0 15.72 l1.6 0 z M44.147999999999996 27.119999999999997 l5.84 0 l0 -8.64 z M71.176 20.24 q-0.56 0 -0.98 -0.42 t-0.42 -0.98 l0 -7.44 q0 -0.56 0.42 -0.98 t0.98 -0.42 l3.04 0 q0.6 0 1 0.42 t0.4 0.98 l0 7.44 q0 0.56 -0.4 0.98 t-1 0.42 l-3.04 0 z M92.896 10 q0.56 0 0.98 0.42 t0.42 0.98 l0 26.88 q0 0.56 -0.42 0.98 t-0.98 0.42 l-3.04 0 q-0.6 0 -1 -0.42 t-0.4 -0.98 l0 -10.56 l-12.84 0 l0 10.56 q0 0.56 -0.4 0.98 t-1 0.42 l-3.04 0 q-0.56 0 -0.98 -0.42 t-0.42 -0.98 l0 -14.96 q0 -0.56 0.42 -0.98 t0.98 -0.42 l17.28 0 l0 -10.52 q0 -0.56 0.4 -0.98 t1 -0.42 l3.04 0 z M117.284 34.12 q0.48 0.16 0.76 0.54 t0.28 0.86 l0 3.08 q0 0.64 -0.52 1.08 q-0.4 0.32 -0.88 0.32 q-0.2 0 -0.28 -0.04 q-3.72 -0.72 -6.4 -3.44 q-3.6 -3.68 -3.6 -9.68 l0 -15.4 q0 -0.6 0.42 -1.02 t0.98 -0.42 l3.08 0 q0.6 0 1.02 0.42 t0.42 1.02 l0 15.48 q0 3.8 2.16 5.8 q1.12 1.04 2.56 1.4 z M131.084 10 q0.6 0 1.02 0.42 t0.42 1.02 l0 15.4 q0 6 -3.6 9.68 q-2.68 2.72 -6.4 3.44 q-0.08 0.04 -0.28 0.04 q-0.48 0 -0.88 -0.32 q-0.52 -0.4 -0.52 -1.12 l0 -3.08 q0 -0.44 0.28 -0.82 t0.76 -0.54 q1.52 -0.44 2.56 -1.4 q2.16 -1.92 2.16 -5.8 l0 -15.48 q0 -0.6 0.42 -1.02 t1.02 -0.42 l3.04 0 z M165.99200000000002 24.36 q2.08 1.28 3.04 3.68 q0.56 1.28 0.56 3.16 q0 2.92 -1.56 4.9 t-4.56 2.94 q-1.88 0.64 -4.44 0.64 l-12.76 0 q-0.56 0 -0.98 -0.42 t-0.42 -0.98 l0 -2.88 q0 -0.6 0.42 -1.02 t0.98 -0.42 l13.08 0 q2.32 0 3.44 -0.84 q0.96 -0.8 0.96 -2.18 t-1 -2.26 q-1.24 -1.08 -3.72 -1.08 l-12.76 0 q-0.56 0 -0.98 -0.42 t-0.42 -1.02 l0 -2.76 q0 -0.56 0.42 -0.98 t0.98 -0.42 l12.04 0 q1.72 0 2.68 -0.6 q0.68 -0.4 1.08 -1.16 q0.28 -0.56 0.28 -1.3 t-0.2 -1.34 q-0.16 -0.48 -0.56 -0.88 q-0.88 -1 -2.92 -1 l-12.4 0 q-0.56 0 -0.98 -0.42 t-0.42 -1.02 l0 -2.88 q0 -0.56 0.42 -0.98 t0.98 -0.42 l12.04 0 q4.96 0 7.64 2.8 q2.28 2.28 2.28 5.72 q0 3.68 -2.24 5.84 z"/></g>
			</g>
		</svg>
	